<svg width="450" height="450" viewBox="0 0 450 450" fill="none" xmlns="http://www.w3.org/2000/svg">
<rect width="450" height="450" rx="225" fill="#717171"/>
<path d="M354.949 262.553L356.731 253.054L349.883 259.874L226.261 383H203H195.757L200.879 388.121L225.379 412.621L227.5 414.743L229.621 412.621L337.121 305.121L337.372 304.871L337.557 304.569C345.788 291.15 349.843 282.37 351.992 276C353.628 271.15 354.157 267.636 354.57 264.891C354.698 264.044 354.814 263.27 354.949 262.553Z" fill="white" stroke="black" stroke-width="6"/>
<path d="M367.965 210.733L363.674 207.014L363.02 212.654C359.03 247.064 354.029 269.471 345.589 287.548C337.176 305.569 325.241 319.512 306.939 336.82L306.887 336.869L306.838 336.921L281.838 362.921L274.017 371.054L284.844 367.879C305.86 361.716 328.745 349.238 347.344 326.748C365.953 304.247 380.124 271.902 383.989 226.253L384.118 224.732L382.965 223.733L367.965 210.733Z" fill="white" stroke="black" stroke-width="6"/>
<path d="M212.879 82.8787L207.773 87.9849L214.994 88C232.125 88.0359 243.513 89.3281 253.96 91.8975C263.84 94.3273 272.955 97.9129 285.466 102.834C286.264 103.148 287.076 103.467 287.903 103.792C301.353 109.076 313.591 118.804 326.326 130.656C331.08 135.08 335.94 139.84 340.951 144.747C349.177 152.802 357.808 161.254 367.033 169.265L372.559 174.064L371.991 166.767C371.464 160.004 367.505 150.556 360.923 140.348C354.275 130.037 344.738 118.622 332.632 107.894C308.424 86.4411 273.753 67.5806 231.111 66.0021L229.804 65.9537L228.879 66.8787L212.879 82.8787Z" fill="white" stroke="black" stroke-width="6"/>
<path d="M87.2699 238.451L92.254 241.969L91.9973 235.874C91.3351 220.151 92.2147 208.954 94.7452 198.153C97.2735 187.361 101.475 176.844 107.649 162.434C126.484 134.181 145.889 113.52 165.609 92.5238C169.794 88.0679 173.993 83.5968 178.204 79.0348L174.696 74.2983C173.902 74.6817 173.106 75.0648 172.31 75.4484C158.634 82.0368 144.671 88.7635 131.274 99.2638C117.037 110.423 103.515 125.77 91.3282 149.636C77.3757 176.959 72.0862 195.272 69.0174 223.678L68.8277 225.433L70.2699 226.451L87.2699 238.451Z" fill="white" stroke="black" stroke-width="6"/>
<path d="M255 66H263.404L256.9 60.6781L245.938 51.7096L228.836 36.7424L226.78 34.9431L224.797 36.8224L226.86 39C224.797 36.8224 224.796 36.8228 224.795 36.8235L224.792 36.8267L224.779 36.8394L224.726 36.8894L224.518 37.0869C224.334 37.2611 224.062 37.5197 223.706 37.8575C222.994 38.5332 221.95 39.5257 220.618 40.7937C217.953 43.3299 214.138 46.9686 209.531 51.3796C200.317 60.2012 187.937 72.1144 175.274 84.4775C162.613 96.8377 149.657 109.66 139.296 120.296C134.117 125.613 129.571 130.4 126.029 134.317C122.544 138.172 119.871 141.357 118.585 143.404C109.482 157.899 104.985 166.513 100.12 183.159L97.3972 192.478L104.903 186.319L143.903 154.319L144.045 154.203L144.171 154.07L228.145 66H255Z" fill="white" stroke="black" stroke-width="6"/>
<path d="M70 201V193.954L64.9207 198.838L38.9207 223.838L36.6741 225.998L38.9183 228.16L148.918 334.16L149.107 334.342L149.325 334.489C163.253 343.86 171.807 346.445 186.916 349.443L196.608 351.365L189.621 344.379L70 224.757V201Z" fill="white" stroke="black" stroke-width="6"/>
<path d="M384.519 246.667L383.568 255.174L389.621 249.121L412.121 226.621L414.243 224.5L412.121 222.379L314.15 124.407C297.751 107.104 282.61 101.927 264.63 98.0668L255.452 96.0966L261.786 103.024L293.786 138.024L293.865 138.111L293.951 138.192L339.914 181.157L384.721 225.963C384.737 226.065 384.754 226.176 384.772 226.298C384.893 227.125 385.044 228.417 385.146 230.186C385.349 233.725 385.355 239.181 384.519 246.667Z" fill="white" stroke="black" stroke-width="6"/>
<path d="M243.17 366.275L247.913 361.306L241.044 361.204C187.951 360.421 146.812 337.708 81.1702 268.929L76.3143 272.337C95.4253 310.729 115.139 337.033 139.28 354.175C163.464 371.347 191.783 379.108 227.676 380.996L229.052 381.068L230.004 380.071L243.17 366.275Z" fill="white" stroke="black" stroke-width="6"/>
<path d="M256.254 181.228H271.986V282.52C271.986 286.936 274.286 289.144 278.886 289.144C280.726 289.144 282.106 288.73 283.026 287.902C284.038 287.166 284.59 286.798 284.682 286.798C285.326 286.798 285.648 287.12 285.648 287.764C285.648 288.5 285.418 289.144 284.958 289.696C283.762 291.168 280.91 291.904 276.402 291.904C271.986 291.904 267.8 290.57 263.844 287.902C259.98 285.326 258.048 281.646 258.048 276.862V185.506L231.138 276.724C230.954 277.736 230.448 278.242 229.62 278.242C228.884 278.242 228.332 277.644 227.964 276.448L201.054 186.058V246.088C201.054 256.484 198.8 264.396 194.292 269.824C189.876 275.16 184.678 277.828 178.698 277.828C172.718 277.828 167.658 276.08 163.518 272.584C159.47 269.088 157.446 264.81 157.446 259.75C157.446 254.598 158.688 251.01 161.172 248.986C163.564 246.87 165.68 245.812 167.52 245.812C169.452 245.812 171.108 246.226 172.488 247.054C173.868 247.882 174.558 248.802 174.558 249.814C174.558 250.826 174.328 251.332 173.868 251.332C173.408 251.332 173.04 251.194 172.764 250.918C172.58 250.642 172.396 250.32 172.212 249.952C171.568 249.032 170.05 248.572 167.658 248.572C165.358 248.572 163.518 249.584 162.138 251.608C160.758 253.54 160.068 256.024 160.068 259.06C160.068 264.028 161.862 267.984 165.45 270.928C169.13 273.78 173.454 275.206 178.422 275.206C183.39 275.206 187.944 272.906 192.084 268.306C196.224 263.706 198.294 257.496 198.294 249.676V183.712H187.392C183.068 183.712 179.848 184.678 177.732 186.61C175.616 188.45 174.558 190.658 174.558 193.234C174.558 195.718 175.202 197.788 176.49 199.444C177.778 201.1 179.48 201.928 181.596 201.928C183.804 201.928 185.414 201.422 186.426 200.41C187.438 199.398 188.22 198.432 188.772 197.512C189.324 196.5 189.876 195.994 190.428 195.994C190.98 195.994 191.256 196.684 191.256 198.064C191.256 199.444 190.198 200.916 188.082 202.48C186.058 203.952 183.666 204.688 180.906 204.688C178.146 204.688 175.938 203.63 174.282 201.514C172.626 199.398 171.798 196.776 171.798 193.648C171.798 190.428 173.132 187.53 175.8 184.954C178.56 182.286 182.47 180.952 187.53 180.952H214.302L235.278 252.574L256.254 181.228Z" fill="black"/>
</svg>
